<svg xmlns="http://www.w3.org/2000/svg" xmlns:xlink="http://www.w3.org/1999/xlink" width="1200" height="1200" viewBox="0 0 1200 1200"><g transform="translate(600 600) scale(-0.69 0.69) rotate(0) translate(-600 -600)" style="fill:#000000"><svg fill="#000000" xmlns:x="http://ns.adobe.com/Extensibility/1.0/" xmlns:i="http://ns.adobe.com/AdobeIllustrator/10.0/" xmlns:graph="http://ns.adobe.com/Graphs/1.0/" xmlns="http://www.w3.org/2000/svg" xmlns:xlink="http://www.w3.org/1999/xlink" version="1.1" x="0px" y="0px" viewBox="0 0 100 100" style="enable-background:new 0 0 100 100;" xml:space="preserve"><g><g i:extraneous="self"><g><path d="M79,28.7V15.6H65.9V2.5h-58v68.8H21v13.1h13.1v13.1h58V28.7H79z M11.6,67.6V6.2h50.5v9.4H21v52H11.6z M24.7,80.7V19.3     h50.5v9.4H34.1v52H24.7z M88.4,93.8H37.8V32.4h50.5V93.8z"></path><rect x="46.6" y="42.3" width="32.9" height="3.7"></rect><rect x="46.6" y="54.9" width="32.9" height="3.7"></rect><rect x="46.6" y="67.5" width="32.9" height="3.7"></rect><rect x="46.6" y="80.2" width="32.9" height="3.7"></rect></g></g></g></svg></g></svg>